<svg xmlns="http://www.w3.org/2000/svg" viewBox="0 0 320 640" width="320" height="640" role="img" aria-label="Ecrã Modo Compra do Opticart">
  <rect x="4" y="4" width="312" height="632" rx="40" ry="40" fill="#1a1a1a"/>
  <rect x="12" y="12" width="296" height="616" rx="32" ry="32" fill="#F2F2F2"/>
  <text x="28" y="34" font-family="-apple-system,Helvetica" font-size="11" font-weight="600" fill="#111">9:41</text>
  <circle cx="285" cy="30" r="4" fill="#111"/>

  <!-- Cartão verde do TOTAL ATUAL -->
  <rect x="20" y="52" width="280" height="120" rx="14" fill="#1F8A3D"/>
  <circle cx="60" cy="102" r="24" fill="none" stroke="#fff" stroke-width="2.4"/>
  <path d="M46 92h6l3 15h20l4-11H55" fill="none" stroke="#fff" stroke-width="2.2" stroke-linecap="round" stroke-linejoin="round"/>
  <text x="100" y="88" font-family="-apple-system,Helvetica" font-size="10" font-weight="700" fill="#fff" opacity="0.85">TOTAL ATUAL</text>
  <text x="100" y="130" font-family="-apple-system,Helvetica" font-size="34" font-weight="700" fill="#fff">19,75 €</text>
  <text x="100" y="152" font-family="-apple-system,Helvetica" font-size="10" fill="#fff" opacity="0.85">arredondado a 5 cêntimos</text>

  <!-- Barra topo -->
  <path d="M28 200l-8 8 8 8" fill="none" stroke="#111" stroke-width="2" stroke-linecap="round"/>
  <text x="52" y="212" font-family="-apple-system,Helvetica" font-size="16" font-weight="700" fill="#111">Compras Semanais</text>
  <text x="228" y="212" font-family="-apple-system,Helvetica" font-size="10" font-weight="700" fill="#1F8A3D">SAIR MODO COMPRA</text>

  <!-- POR ADICIONAR -->
  <text x="28" y="244" font-family="-apple-system,Helvetica" font-size="10" font-weight="700" fill="#1F8A3D">POR ADICIONAR (8)</text>

  <rect x="20" y="256" width="280" height="60" rx="14" fill="#fff"/>
  <rect x="34" y="270" width="34" height="34" rx="8" fill="#5B8DEF"/>
  <text x="51" y="292" text-anchor="middle" font-family="-apple-system,Helvetica" font-size="16" font-weight="700" fill="#fff">L</text>
  <text x="80" y="284" font-family="-apple-system,Helvetica" font-size="13" font-weight="700" fill="#111">Leite 1L</text>
  <text x="80" y="300" font-family="-apple-system,Helvetica" font-size="10" fill="#6C6C6C">1 un · 1,20 €</text>
  <rect x="248" y="270" width="34" height="34" rx="8" fill="#1F8A3D"/>
  <path d="M265 278v18M256 287h18" stroke="#fff" stroke-width="2.4" stroke-linecap="round"/>

  <rect x="20" y="324" width="280" height="60" rx="14" fill="#fff"/>
  <rect x="34" y="338" width="34" height="34" rx="8" fill="#E7A93B"/>
  <text x="51" y="360" text-anchor="middle" font-family="-apple-system,Helvetica" font-size="16" font-weight="700" fill="#fff">A</text>
  <text x="80" y="352" font-family="-apple-system,Helvetica" font-size="13" font-weight="700" fill="#111">Atum (3 por 2)</text>
  <text x="80" y="368" font-family="-apple-system,Helvetica" font-size="10" fill="#6C6C6C">3 un · 2,90 €</text>
  <rect x="248" y="338" width="34" height="34" rx="8" fill="#1F8A3D"/>
  <path d="M265 346v18M256 355h18" stroke="#fff" stroke-width="2.4" stroke-linecap="round"/>

  <!-- NO CARRINHO -->
  <text x="28" y="410" font-family="-apple-system,Helvetica" font-size="10" font-weight="700" fill="#6C6C6C">NO CARRINHO (4)</text>

  <rect x="20" y="422" width="280" height="60" rx="14" fill="#E9F5EC"/>
  <rect x="34" y="436" width="34" height="34" rx="8" fill="#B0785A"/>
  <text x="51" y="458" text-anchor="middle" font-family="-apple-system,Helvetica" font-size="16" font-weight="700" fill="#fff">M</text>
  <text x="80" y="450" font-family="-apple-system,Helvetica" font-size="13" font-weight="700" fill="#111">Massa Espiral</text>
  <text x="80" y="466" font-family="-apple-system,Helvetica" font-size="10" fill="#6C6C6C">1 un · 0,85 €</text>
  <rect x="248" y="436" width="34" height="34" rx="8" fill="none" stroke="#1F8A3D" stroke-width="2"/>
  <path d="M256 452l5 5 10-10" fill="none" stroke="#1F8A3D" stroke-width="2.4" stroke-linecap="round"/>

  <rect x="20" y="490" width="280" height="60" rx="14" fill="#E9F5EC"/>
  <rect x="34" y="504" width="34" height="34" rx="8" fill="#8D6E63"/>
  <text x="51" y="526" text-anchor="middle" font-family="-apple-system,Helvetica" font-size="16" font-weight="700" fill="#fff">P</text>
  <text x="80" y="518" font-family="-apple-system,Helvetica" font-size="13" font-weight="700" fill="#111">Pão</text>
  <text x="80" y="534" font-family="-apple-system,Helvetica" font-size="10" fill="#6C6C6C">2 un · 2,40 €</text>
  <rect x="248" y="504" width="34" height="34" rx="8" fill="none" stroke="#1F8A3D" stroke-width="2"/>
  <path d="M256 520l5 5 10-10" fill="none" stroke="#1F8A3D" stroke-width="2.4" stroke-linecap="round"/>

  <!-- Botão VER RESUMO -->
  <rect x="20" y="580" width="280" height="42" rx="21" fill="#1F8A3D"/>
  <text x="160" y="606" text-anchor="middle" font-family="-apple-system,Helvetica" font-size="12" font-weight="700" fill="#fff">VER RESUMO FINAL ›</text>
</svg>
